<svg id="Layer_1" data-name="Layer 1" xmlns="http://www.w3.org/2000/svg" viewBox="0 0 137.35 161.1"><defs><style>.cls-1{fill:#101315;}.cls-2{fill:none;stroke:#67b645;stroke-miterlimit:10;}</style></defs><title>Artboard 1</title><path class="cls-1" d="M108,5.32A126.48,126.48,0,0,0,69.78,0,122.38,122.38,0,0,0,24.64,8.38c-13.33,5.31-21.5,15-24,29.33-1.89,11,.42,21.4,4.18,31.67a230.5,230.5,0,0,0,30.92,58.11A352.31,352.31,0,0,0,58.24,155.1c7.45,8.2,17.23,7.8,25.09,0a55,55,0,0,0,3.89-4.24c13.16-16.17,23.89-33.87,33.07-52.55C127,84.72,132.61,70.76,135.95,56,141.41,31.85,130.64,12.19,108,5.32ZM124.67,60.1c-2.78,12.3-7.48,23.92-13,35.22a228.1,228.1,0,0,1-27.53,43.74,45.78,45.78,0,0,1-3.24,3.53c-6.55,6.51-14.69,6.84-20.89,0a293.26,293.26,0,0,1-18.7-23A191.86,191.86,0,0,1,15.55,71.25C12.42,62.7,10.5,54,12.07,44.89c2-11.9,8.85-20,19.95-24.41a101.87,101.87,0,0,1,37.57-7,105.28,105.28,0,0,1,31.85,4.42C120.26,23.65,129.21,40,124.67,60.1Z"/><path class="cls-2" d="M69.53,18a98.19,98.19,0,0,1,29.71,4.12c17.55,5.34,25.9,20.6,21.67,39.33-2.6,11.48-7,22.31-12.15,32.85a212.76,212.76,0,0,1-25.68,40.8,42.68,42.68,0,0,1-3,3.29c-6.11,6.07-13.7,6.38-19.48,0A273.52,273.52,0,0,1,43.13,117a179,179,0,0,1-24-45.11c-2.92-8-4.71-16-3.24-24.59,1.91-11.1,8.26-18.65,18.6-22.77A95,95,0,0,1,69.53,18Z"/><path class="cls-1" d="M42.56,89.64l6.68-3.28-7.08-4.3Z"/><path class="cls-1" d="M96.6,27.19a89.7,89.7,0,0,0-27.14-3.77,86.8,86.8,0,0,0-32,5.94C28,33.13,22.19,40,20.44,50.16c-1.34,7.8.3,15.18,3,22.46a163.49,163.49,0,0,0,21.93,41.22,249.87,249.87,0,0,0,15.93,19.58c5.28,5.82,12.22,5.53,17.8,0a39,39,0,0,0,2.76-3,194.37,194.37,0,0,0,23.46-37.27,136.37,136.37,0,0,0,11.1-30C120.26,46,112.63,32.06,96.6,27.19ZM34.33,63.51l3.95,3.6c.61-1.94,1.23-3.88,1.75-5.84.67-2.53.53-2.06-1.62-4-1.5-1.36-4.26-3-4.57-5.26-.29-2,1.13-4.83,1.67-6.73a1.46,1.46,0,0,1,2.13-.87L42,47.57c1.5,1.09,0,3.61-1.47,2.51L37.65,48c-.54,1.54-1,3.13-.27,4.43,1.17,2.11,4.28,3,5.52,5.17,1.84,3.14-1.56,9.38-2.51,12.53a1.47,1.47,0,0,1-2.43.64l-5.68-5.19C30.9,64.3,33,62.25,34.33,63.51ZM53,87.74l-10.26,5,.36,6.91c.1,1.88-2.77,1.85-2.9,0l-.07-1a1.55,1.55,0,0,1,0-.21l-.25-4.83-.41-.39A1.46,1.46,0,0,1,39.73,91l-.56-10.77s0,0,0,0l-2.73-1.66a1.45,1.45,0,0,1,1.47-2.51L53,85.23A1.46,1.46,0,0,1,53,87.74Zm6.08,17.42-.3,1a1.46,1.46,0,0,1-2.85-.39l-.56-22.73c0-1.87,2.86-1.86,2.9,0l.51,20.77A1.28,1.28,0,0,1,59.07,105.16Zm.16-38.57a1.46,1.46,0,0,1-2.85.39L53.9,60.92l-1,6.71c-.2,1.44-2.51,1.33-2.8,0C48.53,60.09,48,50.57,44.09,44.19c-1-1.6,1.53-3.06,2.51-1.47,2.72,4.43,3.87,9.92,4.8,15.36l.43-3c.23-1.6,2.34-1.13,2.8,0l2.16,5.29,1.25-17c.14-1.85,3-1.86,2.9,0Zm15.37,43.08-3.16,6.81a1.46,1.46,0,0,1-2.51,0c-1.47-2.63-3.73-5.48-4.74-8.32-1-2.69-.35-6.5-.38-9.26,0-2.94-.79-7,.11-9.87s3-5.85,4.41-8.55a1.46,1.46,0,0,1,2.51,0l3.55,5.85a1.45,1.45,0,0,1-2.51,1.47l-2.25-3.71a25.82,25.82,0,0,0-2.89,5.71c-.75,2.72-.05,6.35,0,9.1,0,2.44-.52,6,.22,8.23A26,26,0,0,0,70,112.7l2.08-4.5C72.87,106.51,75.37,108,74.59,109.67ZM74.38,68.2l-9.95-3.27a1.47,1.47,0,0,1-1-1.79,67.72,67.72,0,0,1,3.14-7.56,10,10,0,0,1,2.92-3l-5.36-3.54a1.47,1.47,0,0,1,0-2.51l8-5.66c1.53-1.08,3,1.44,1.47,2.51l-6.2,4.36,5.3,3.49A1.46,1.46,0,0,1,73,53.56c-1.93,1.51-3.34,2.31-4,3.62-.88,1.75-1.57,3.62-2.29,5.45l8.42,2.76C76.92,66,76.16,68.78,74.38,68.2ZM77,62.9c1.09-2.39,1.92-5.29,3.38-7.46a10.4,10.4,0,0,1,2.85-2.59L78.1,49.19a1.47,1.47,0,0,1,0-2.51l8.21-5.4c1.57-1,3,1.48,1.47,2.51L81.4,48l5.14,3.63a1.48,1.48,0,0,1,0,2.51c-2,1.49-3.29,2.19-4,3.6-.82,1.67-1.57,3.38-2.32,5.08l8.27,3c1.74.64,1,3.44-.77,2.8L77.91,65A1.48,1.48,0,0,1,77,62.9Zm12.11,40.18c-.19-1.64,0-5.38-.78-6.48s-3.86-1.72-5.83-2l-.29.47-.58,13.67c-.08,1.86-3,1.87-2.9,0l.53-12.56a1.4,1.4,0,0,1-.15-1.6l.24-.46.69-16.29c.08-1.86,3-1.87,2.9,0L82.55,88l4.74-9.17c.86-1.66,3.36-.19,2.51,1.47l-6,11.61c2.4.43,5.43,1.11,6.82,2.75,1.58,1.86,1.19,6.22,1.44,8.46C92.26,104.94,89.36,104.92,89.15,103.08ZM99.72,93a1.47,1.47,0,0,1-2.43.64l-4.87-4.44C91,88,93.1,85.92,94.47,87.18L97.61,90c.49-1.55,1-3.11,1.4-4.68.12-.46.29-1.77.53-1.54a11,11,0,0,0-1.86-1.7c-1.34-1.21-3.71-2.67-4-4.65-.24-1.79,1-4.17,1.44-5.82a1.46,1.46,0,0,1,2.13-.87L101,73.5c1.5,1.09,0,3.61-1.47,2.51l-2.27-1.65a4.33,4.33,0,0,0-.19,3.32c.94,1.81,3.64,2.64,4.73,4.43C103.5,84.85,100.56,90.25,99.72,93Zm6.39-45.09-5.68-.67c-1.69,6.5-3.05,13.06-4.47,19.64-.39,1.83-3.19,1-2.8-.77,1.38-6.43,2.72-12.84,4.36-19.2l-5.89-.69c-1.84-.22-1.85-3.12,0-2.9l7,.83a1.58,1.58,0,0,1,1.69.2l4.47.52a1.55,1.55,0,0,1,.5,0l1.17.2C108.1,45.37,107.72,48.13,106.11,47.94Z"/></svg>